HIERARCHY
ROOT Hips
{
	OFFSET -3.958830 18.904000 13.208200
	CHANNELS 6 Xposition Yposition Zposition Zrotation Yrotation Xrotation 
	JOINT LHipJoint
	{
		OFFSET 0.000000 0.000000 0.000000
		CHANNELS 3 Zrotation Yrotation Xrotation
		JOINT LeftUpLeg
		{
			OFFSET 1.800000 -1.400000 0.085000
			CHANNELS 3 Zrotation Yrotation Xrotation
			JOINT LeftLeg
			{
				OFFSET 2.215000 -6.000000 0.000000
				CHANNELS 3 Zrotation Yrotation Xrotation
				JOINT LeftFoot
				{
					OFFSET 2.500000 -6.900000 0.000000
					CHANNELS 3 Zrotation Yrotation Xrotation
					JOINT LeftToeBase
					{
						OFFSET 0.200000 -0.500000 1.950000
						CHANNELS 3 Zrotation Yrotation Xrotation
						End Site
						{
							OFFSET 0.000000 0.000000 0.000000
						}
					}
				}
			}
		}
	}
	JOINT RHipJoint
	{
		OFFSET 0.000000 0.000000 0.000000
		CHANNELS 3 Zrotation Yrotation Xrotation
		JOINT RightUpLeg
		{
			OFFSET -1.800000 -1.400000 0.085000
			CHANNELS 3 Zrotation Yrotation Xrotation
			JOINT RightLeg
			{
				OFFSET -2.215000 -6.000000 0.000000
				CHANNELS 3 Zrotation Yrotation Xrotation
				JOINT RightFoot
				{
					OFFSET -2.500000 -6.900000 0.000000
					CHANNELS 3 Zrotation Yrotation Xrotation
					JOINT RightToeBase
					{
						OFFSET -0.200000 -0.500000 1.950000
						CHANNELS 3 Zrotation Yrotation Xrotation
						End Site
						{
							OFFSET 0.000000 0.000000 0.000000
						}
					}
				}
			}
		}
	}
	JOINT LowerBack
	{
		OFFSET 0.000000 0.000000 0.000000
		CHANNELS 3 Zrotation Yrotation Xrotation
		JOINT Spine
		{
			OFFSET -0.087000 1.940000 -0.288900
			CHANNELS 3 Zrotation Yrotation Xrotation
			JOINT Spine1
			{
				OFFSET 0.000000 1.950000 0.060000
				CHANNELS 3 Zrotation Yrotation Xrotation
				JOINT Neck
				{
					OFFSET 0.000000 0.000000 0.000000
					CHANNELS 3 Zrotation Yrotation Xrotation
					JOINT Neck1
					{
						OFFSET 0.000000 1.600000 0.340000
						CHANNELS 3 Zrotation Yrotation Xrotation
						JOINT Head
						{
							OFFSET 0.000000 1.667000 -0.240000
							CHANNELS 3 Zrotation Yrotation Xrotation
							End Site
							{
								OFFSET 0.000000 0.000000 0.000000
							}
						}
					}
				}
				JOINT LeftShoulder
				{
					OFFSET 0.000000 0.000000 0.000000
					CHANNELS 3 Zrotation Yrotation Xrotation
					JOINT LeftArm
					{
						OFFSET 2.700000 1.550000 -0.730000
						CHANNELS 3 Zrotation Yrotation Xrotation
						JOINT LeftForeArm
						{
							OFFSET 5.450000 0.000000 0.000000
							CHANNELS 3 Zrotation Yrotation Xrotation
							JOINT LeftHand
							{
								OFFSET 3.450000 0.000000 0.000000
								CHANNELS 3 Zrotation Yrotation Xrotation
								JOINT LeftHandIndex1
								{
									OFFSET 0.750000 0.000000 0.000000
									CHANNELS 3 Zrotation Yrotation Xrotation
									End Site
									{
										OFFSET 0.000000 0.000000 0.000000
									}
								}
							}
						}
					}
				}
				JOINT RightShoulder
				{
					OFFSET 0.000000 0.000000 0.000000
					CHANNELS 3 Zrotation Yrotation Xrotation
					JOINT RightArm
					{
						OFFSET -2.700000 1.550000 -0.730000
						CHANNELS 3 Zrotation Yrotation Xrotation
						JOINT RightForeArm
						{
							OFFSET -5.450000 0.000000 0.000000
							CHANNELS 3 Zrotation Yrotation Xrotation
							JOINT RightHand
							{
								OFFSET -3.450000 0.000000 0.000000
								CHANNELS 3 Zrotation Yrotation Xrotation
								JOINT RightHandIndex1
								{
									OFFSET -0.750000 0.000000 0.000000
									CHANNELS 3 Zrotation Yrotation Xrotation
									End Site
									{
										OFFSET 0.000000 0.000000 0.000000
									}
								}
							}
						}
					}
				}
			}
		}
	}
}
MOTION
Frames: 4
Frame Time: 0.016667
-2.897160 15.985140 -6.953930 -8.026439 -6.794364 -7.770582 -16.232643 10.101786 6.778572 39.197649 0.826922 -44.216816 -16.047940 29.395406 62.054421 1.618657 13.896630 -0.412836 0.618160 0.619140 0.646390 18.060175 -7.346590 3.045928 -30.224161 7.578422 -33.694457 18.860476 -17.691767 47.173645 -1.557221 -8.539647 1.192340 0.033820 -0.455300 0.134050 -1.989877 -2.893820 -10.159640 -4.791398 7.009540 53.762889 7.339609 7.916946 -2.844176 -0.069336 6.437287 -14.778900 18.819982 -12.569054 57.803771 5.737080 1.718580 -28.470150 -15.839690 -12.959397 7.653645 -60.810105 10.131406 -20.684646 -67.574628 -42.355053 18.189168 -3.015959 3.253969 0.913260 -0.500820 0.715700 0.041880 15.169588 18.140731 7.619866 62.795574 8.524067 -16.378799 117.670649 50.775956 50.029142 2.667926 -1.630913 0.125900 0.143710 -0.240740 -0.195010 
-2.737860 16.149010 -6.917390 -8.304155 -8.449068 -7.698845 -16.166638 10.430859 6.550259 37.274867 0.226092 -42.191624 -16.061738 28.248390 60.041450 1.597542 13.616546 -0.273314 0.478850 0.426140 0.570350 18.022275 -7.931805 2.708644 -27.609018 6.590150 -31.792769 15.589841 -14.900279 43.898053 -1.208850 -7.588451 1.521910 -0.058060 -0.369900 0.127200 -2.004695 -2.481310 -9.828349 -6.384143 7.472401 50.542711 7.217095 8.295675 -4.551566 0.194370 7.474396 -14.641149 20.905339 -12.697250 51.839596 1.653000 1.434550 -21.441670 -11.697858 -8.608005 6.645265 -62.372781 10.131600 -18.855043 -64.523374 -39.523282 16.603074 -3.078426 3.271816 0.808520 -0.395060 0.593930 0.043370 9.860330 13.269809 7.668969 66.363854 7.284898 -14.113429 122.654182 48.391499 53.056221 2.645275 -1.769337 0.080310 0.101960 -0.208000 -0.190890 
-2.542450 16.394120 -6.899850 -8.601082 -10.077039 -8.813399 -15.968638 11.074238 6.102702 34.092141 -0.770793 -38.314845 -15.123341 25.593891 56.980321 1.448457 13.029405 -0.029019 0.197360 0.080730 0.384180 18.007044 -8.869529 2.305611 -24.073649 5.453196 -28.458842 11.057844 -11.479802 39.465270 -0.785645 -6.262136 2.036078 -0.227520 -0.166440 0.089770 -2.193926 -2.000268 -9.400260 -6.345505 6.557492 49.399011 4.977363 7.663702 -5.546534 0.740962 7.434684 -14.177823 18.569825 -10.943079 46.593332 -0.812090 0.431220 -17.499850 -9.240492 -4.933646 5.674303 -61.648856 10.276258 -17.296239 -62.964940 -39.303006 16.857625 -3.232170 3.157201 0.730280 -0.268030 0.415510 -0.000400 5.787291 9.050241 8.153547 68.675353 5.892811 -12.587626 127.702858 49.572128 61.091881 2.626842 -1.657518 -0.035380 0.182900 -0.041770 -0.175200 
-2.339390 16.664960 -6.882100 -9.248532 -10.620836 -8.960142 -15.716241 11.591026 5.739101 30.745394 -2.009045 -35.669800 -14.294814 22.689027 53.387617 1.275280 12.237680 0.253352 -0.040070 -0.230360 0.175410 18.033662 -9.722375 2.063636 -20.990127 3.921958 -24.917821 8.540863 -9.064778 32.983588 -0.433916 -5.011612 2.537038 -0.393540 0.012330 0.085350 -2.507763 -1.530848 -9.115039 -5.258274 4.210751 46.839828 2.016817 5.508256 -5.854810 1.329655 5.584374 -13.787224 12.178620 -7.317565 44.414471 -1.599580 -0.369400 -12.558780 -7.246704 -2.505351 5.302826 -60.861323 10.456469 -16.684359 -61.005519 -38.995147 16.150259 -3.344410 3.137542 0.651060 -0.167940 0.241800 -0.030820 2.650503 6.281394 8.747586 68.591282 3.370194 -12.543532 123.938985 51.135448 60.087607 2.604152 -1.612575 -0.098400 0.191690 0.117960 -0.138620 
